<svg width="87" height="83" viewBox="0 0 87 83" fill="none" xmlns="http://www.w3.org/2000/svg">
<rect width="6.85862" height="5.58353" transform="matrix(0.395454 -0.918486 0.875287 0.483604 78.3 57.0327)" fill="#BA3E03" fill-opacity="0.65"/>
<rect width="5.16778" height="2.6531" transform="matrix(-0.525781 -0.85062 0.783459 -0.621443 43.5 17.6108)" fill="#4BC8EF" fill-opacity="0.35"/>
<rect width="9.09067" height="2.87364" transform="matrix(-0.998242 0.0592638 -0.046214 -0.998932 52.2 40.6069)" fill="#9AF5FC" fill-opacity="0.35"/>
<rect width="2.00416" height="2.6531" transform="matrix(-0.525781 0.85062 -0.783459 -0.621443 87 11.0405)" fill="#F62584"/>
<ellipse cx="59" cy="51.5" rx="2" ry="2.5" fill="#FF21FB" fill-opacity="0.75"/>
<path d="M2.75552 71.5976L5.70373 74.5008L3.14089 77.8406L0.192685 74.9373L2.75552 71.5976Z" fill="#03A3F5" fill-opacity="0.35"/>
<path d="M59.6688 70.4921L62.5062 71.0589L62.0059 74.2731L59.1685 73.7063L59.6688 70.4921Z" fill="#9AF5FC" fill-opacity="0.65"/>
<path d="M37.74 70.1046L37.8405 73.3664L34.9611 73.4803L34.8606 70.2185L37.74 70.1046Z" fill="#480CA7" fill-opacity="0.35"/>
<path d="M15.5012 67.1338L16.2855 65.2285L17.9674 66.117L17.1831 68.0223L15.5012 67.1338Z" fill="#9AF5FC" fill-opacity="0.6"/>
<path d="M61.2538 72.8283L62.5633 71.0604L64.5696 71.4611L65.2664 73.6298L63.9569 75.3976L61.9506 74.9969L61.2538 72.8283Z" fill="#F62584" fill-opacity="0.45"/>
<path d="M69.3592 14.4936L70.5266 11.6576L73.2783 11.3849L74.8627 13.9481L73.6953 16.7841L70.9436 17.0568L69.3592 14.4936Z" fill="#9AF5FC" fill-opacity="0.75"/>
<path d="M41.0055 1.4138L42.659 0.459386L43.5015 2.33253L41.848 3.28694L41.0055 1.4138Z" fill="#480CA7" fill-opacity="0.6"/>
<path d="M86.8174 9.22738L85.7458 10.4844L84.3592 9.71838L84.5739 7.98786L86.0931 7.6844L86.8174 9.22738Z" fill="#F54721" fill-opacity="0.35"/>
<path d="M80.1466 39.2845L80.3912 37.028L78.5723 36.0672L80.5423 35.6334L80.7869 33.3769L81.7599 35.3653L83.7299 34.9315L82.3612 36.5942L83.3341 38.5826L81.5153 37.6218L80.1466 39.2845Z" fill="#FF21FB" fill-opacity="0.65"/>
<path d="M10.0115 79.9769L10.2926 80.9612L11.1701 80.6748L10.5582 81.4427L11.2159 82.1604L10.3229 81.944L10.1031 82.9481L9.82194 81.9638L8.94441 82.2502L9.55633 81.4823L8.89861 80.7646L9.79165 80.981L10.0115 79.9769Z" fill="#FF21FB" fill-opacity="0.65"/>
<path d="M19.466 59.9878L18.8083 60.7055L19.4202 61.4734L18.5427 61.187L18.2616 62.1713L18.0418 61.1672L17.1487 61.3835L17.8065 60.6658L17.1945 59.8979L18.0721 60.1843L18.3532 59.2L18.573 60.2041L19.466 59.9878Z" fill="#9AF5FC" fill-opacity="0.85"/>
<path d="M73.6012 32.9531L73.8978 31.3825L72.5217 30.996L73.8706 30.5016L73.4781 28.9583L74.5305 30.0344L75.5141 28.8777L75.2176 30.4483L76.5937 30.8349L75.2447 31.3293L75.6372 32.8726L74.5848 31.7964L73.6012 32.9531Z" fill="#FC9E1C" fill-opacity="0.75"/>
<path d="M13.2833 66.3313L13.3498 65.2539L12.4658 64.8493L13.3909 64.588L13.4574 63.5106L13.9626 64.4265L14.8877 64.1652L14.2749 64.9926L14.7801 65.9085L13.8961 65.5039L13.2833 66.3313Z" fill="#4BC8EF" fill-opacity="0.6"/>
<path d="M47.7536 35.5212L45.7126 36.2861L44.8966 38.5392L44.2214 36.2271L42.2324 35.3028L44.2734 34.5379L45.0894 32.2848L45.7646 34.5968L47.7536 35.5212Z" fill="#FF21FB" fill-opacity="0.65"/>
<path d="M23.7083 14.6895L24.536 16.0796L25.9588 15.6174L25.0476 16.9387L25.8752 18.3288L24.4844 17.7553L23.5731 19.0766L23.6247 17.4009L22.2339 16.8274L23.6567 16.3652L23.7083 14.6895Z" fill="#FC9E1C" fill-opacity="0.45"/>
</svg>
